<?xml version="1.0" encoding="UTF-8" standalone="no"?>
<!-- Created with Inkscape (http://www.inkscape.org/) -->

<svg
   xmlns:dc="http://purl.org/dc/elements/1.1/"
   xmlns:cc="http://creativecommons.org/ns#"
   xmlns:rdf="http://www.w3.org/1999/02/22-rdf-syntax-ns#"
   xmlns:svg="http://www.w3.org/2000/svg"
   xmlns="http://www.w3.org/2000/svg"
   xmlns:sodipodi="http://sodipodi.sourceforge.net/DTD/sodipodi-0.dtd"
   xmlns:inkscape="http://www.inkscape.org/namespaces/inkscape"
   width="256"
   height="64"
   viewBox="0 0 256.000001984479 64.00000134297869"
   id="svg2"
   version="1.1"
   inkscape:version="0.92.1 r"
   sodipodi:docname="watermark.svg"
   inkscape:export-filename="/home/zlsa/projects/online/zlsadesign.com/tools/watermark/watermark.png"
   inkscape:export-xdpi="48"
   inkscape:export-ydpi="48">
  <defs
     id="defs4" />
  <sodipodi:namedview
     id="base"
     pagecolor="#9eaee4"
     bordercolor="#27292f"
     borderopacity="0.4941176471"
     inkscape:pageopacity="0"
     inkscape:pageshadow="2"
     inkscape:zoom="1"
     inkscape:cx="163.9947344169246"
     inkscape:cy="27.43717357716446"
     inkscape:document-units="px"
     inkscape:current-layer="layer1"
     showgrid="false"
     borderlayer="true"
     units="px"
     inkscape:window-width="1600"
     inkscape:window-height="862"
     inkscape:window-x="0"
     inkscape:window-y="18"
     inkscape:window-maximized="0"
     inkscape:snap-text-baseline="true">
    <inkscape:grid
       type="xygrid"
       id="grid3374"
       empcolor="#000000"
       empopacity="0.0823529412"
       color="#000000"
       opacity="0.0431372549" />
  </sodipodi:namedview>
  <metadata
     id="metadata7">
    <rdf:RDF>
      <cc:Work
         rdf:about="">
        <dc:format>image/svg+xml</dc:format>
        <dc:type
           rdf:resource="http://purl.org/dc/dcmitype/StillImage" />
        <dc:title></dc:title>
      </cc:Work>
    </rdf:RDF>
  </metadata>
  <g
     inkscape:label="Layer 1"
     inkscape:groupmode="layer"
     id="layer1"
     transform="translate(0,-988.3621605099649)">
    <path
       style="color:#000000;font-style:normal;font-variant:normal;font-weight:normal;font-stretch:normal;font-size:17.5px;line-height:125%;font-family:'Roboto Mono';-inkscape-font-specification:'Roboto Mono';text-indent:0;text-align:center;text-decoration:none;text-decoration-line:none;text-decoration-style:solid;text-decoration-color:#000000;letter-spacing:-0.5px;word-spacing:0px;text-transform:none;direction:ltr;block-progression:tb;writing-mode:lr-tb;baseline-shift:baseline;text-anchor:middle;white-space:normal;clip-rule:nonzero;display:inline;overflow:visible;visibility:visible;opacity:1;isolation:auto;mix-blend-mode:normal;color-interpolation:sRGB;color-interpolation-filters:linearRGB;solid-color:#000000;solid-opacity:1;fill:#303030;fill-opacity:0.5019607843;fill-rule:nonzero;stroke:none;stroke-width:4;stroke-linecap:butt;stroke-linejoin:round;stroke-miterlimit:4;stroke-dasharray:none;stroke-dashoffset:0;stroke-opacity:1;color-rendering:auto;image-rendering:auto;shape-rendering:auto;text-rendering:auto;enable-background:accumulate"
       d="m 80.29296875,1006.940285509965 c -1.33398633416851,0 -2.61339272161256,0.177081050081 -3.81640625,0.546875 -1.19361405674466,0.356554218491 -2.28613296465943,0.88896920655 -3.2265625,1.611328125 -0.94636470483825,0.72691781676 -1.72452042838221,1.643458756504 -2.271484375,2.6953125 -0.56814789281059,1.092592101559 -0.84179687500001,2.318690774805 -0.841796875,3.572265625 0,1.276462576965 0.26992372373356,2.517010671988 0.853515625,3.609375 L 71,1018.993019884965 c 0.54515273269637,0.994903737171 1.2774087329752,1.875054152479 2.15625,2.607421875 0.75796453976864,0.631637116474 1.63706266508046,1.13982668575 2.564453125,1.58984375 l -4.283203125,0 c -1.10452375199249,1.10435811e-4 -1.99988956418935,0.895476248007 -2,2 0,0.644202127717 0.16573848524116,1.23627539261 0.283203125,1.84375 -0.30465453619766,-0.178110429492 -0.65100862653732,-0.272448119468 -1.00390625,-0.2734375 l -8.822265625,0 0,-17.50390625 c -1.1043581065e-4,-1.104523751993 -0.89547624800752,-1.999889564189 -2,-2 l -4.4765625,0 c -0.67871477441254,-2.4719564e-5 -1.31113557125179,0.344129853599 -1.6796875,0.9140625 -0.36779831907117,-0.568769986728 -0.99845325401796,-0.912763587608 -1.67578125,-0.9140625 l -16.568359375,0 c -1.10452375199247,1.10435811e-4 -1.99988956418934,0.895476248007 -2,2 l 0,3.634765625 c 1.1043581066e-4,1.104523751992 0.89547624800753,1.999889564189 2,2 l 7.427734375,0 -9.12109375,13.630859375 c -0.22008067733106,0.328863793642 -0.33767013550913,0.715617560714 -0.337890625,1.111328125 l 0,2.728515625 c 1.1043581066e-4,1.104523751992 0.89547624800753,1.999889564189 2,2 l 16.884765625,0 c 0.59259539282244,-0.0012530834 1.15412953314815,-0.265209895882 1.533203125,-0.720703125 0.37994858507181,0.456541931951 0.94314687288364,0.720608219375 1.537109375,0.720703125 l 15.298828125,0 c 1.10452375199247,-1.10435811e-4 1.99988956418935,-0.895476248008 2,-2 l 0,-2.646484375 c 0.1638400342872,0.280708039403 0.26094671876596,0.604439375021 0.455078125,0.86328125 l 0.013671875,0.01953125 c 0.5402024944521,0.702263242788 1.18058926746525,1.323025408447 1.904296875,1.845703125 0.6959808347363,0.502652825087 1.447430887655,0.921440271436 2.240234375,1.25390625 l 0.009765625,0.005859375 c 0.79703843573328,0.328936497287 1.6293116145898,0.568875267624 2.486328125,0.720703125 0.84597899622833,0.158391906095 1.69678964682316,0.23828125 2.544921875,0.23828125 1.32991816185179,0 2.5968630547878,-0.155157932707 3.787109375,-0.484375 l 0.01953125,-0.005859375 c 1.19337040569253,-0.34277660589 2.27985375188538,-0.857839532664 3.216796875,-1.560546875 l 0.015625,-0.01171875 c 0.0231041588972,-0.01766788622 0.0317855387035,-0.04850687181 0.0546875,-0.06640625 0.0892766834,1.033905492003 0.95443473722884,1.827815235517 1.9921875,1.828125 l 4.697265625,0 c 0.89449309084299,-2.93730589e-4 1.68004866260578,-0.594444899079 1.923828125,-1.455078125 l 0.953125,-3.369140625 3.904296875,0 0.94140625,3.36328125 c 0.2417982300214,0.863653712749 1.0289177740859,1.460778884109 1.92578125,1.4609375 l 4.697265625,0 c 1.3556900972748,-1.7364997e-4 2.3185056422586,-1.320465325501 1.904296875,-2.611328125 l -7.42578125,-23.10546875 c -0.265693478622,-0.82742428872 -1.035260641542,-1.388616342911 -1.904296875,-1.388671875 l -4.046875,0 c -0.86445756477688,9.9929011e-5 -1.63103232689755,0.555531796734 -1.900390625,1.376953125 l -5.0859375,15.521484375 c -0.11193647742691,-0.418973240391 -0.0857849047685,-0.879160635684 -0.267578125,-1.271484375 -0.45630844259838,-1.017027491218 -1.11652059488036,-1.929451470498 -1.935546875,-2.697265625 -0.79266689087657,-0.763027950143 -1.72147515287762,-1.406636013939 -2.763671875,-1.927734375 -0.18117601018498,-0.09058800509 -0.3996482494066,-0.141455264186 -0.5859375,-0.2265625 l 3.9765625,0 c 1.10452375199247,-1.10435811e-4 1.99988956418935,-0.895476248008 2,-2 -1e-14,-1.293403425072 -0.25675333852081,-2.552813125229 -0.787109375,-3.697265625 -0.51642174103149,-1.114383756963 -1.26096325860519,-2.099322571118 -2.185546875,-2.90234375 -0.92638186477726,-0.814940528062 -2.02376603767506,-1.433502177442 -3.236328125,-1.85546875 -1.23317040418317,-0.432921524873 -2.56412338689272,-0.63671875 -3.962890625,-0.63671875 z m 79.7421875,0 c -1.1141055318077,0 -2.2248922702779,0.177166972556 -3.306640625,0.51953125 -1.1061559514125,0.339395037564 -2.1294757331034,0.854124018855 -3.029296875,1.5390625 -0.9178278673173,0.698645093033 -1.6865314483232,1.577906599426 -2.259765625,2.587890625 l -0.009765625,0.017578125 c -0.6078940805322,1.097174681936 -0.900390625,2.349846669565 -0.900390625,3.634765625 0,1.284918955435 0.2922007798214,2.536846224695 0.923828125,3.615234375 0.0057852137,0.0091620458 0.01164478216,0.01827693007 0.017578125,0.02734375 0.5696503540321,0.935854153053 1.3070396490391,1.759357551554 2.173828125,2.439453125 l 0.01171875,0.0078125 c 0.8297949266441,0.641205170588 1.7384306034901,1.17765220566 2.712890625,1.609375 l 0.009765625,0.00390625 c 0.900194488095,0.393835088541 1.7900392560961,0.736493062044 2.673828125,1.0234375 l 0.005859375,0.001953125 c 0.5305217098034,0.17016734088 1.0868371019301,0.362790313869 1.666015625,0.576171875 l 0.009765625,0.00390625 c 0.4757910874013,0.172269186818 0.8887895549165,0.379635744944 1.25390625,0.623046875 0.00777572883,0.0052632803 0.015588422469,0.01047174274 0.0234375,0.015625 0.2879555217987,0.185971274495 0.4853828590865,0.384748508932 0.6484375,0.634765625 0.0057939513,0.0085086485 0.011653500888,0.01697244232 0.017578125,0.025390625 0.076905461012,0.114117780856 0.150390625,0.27587658911 0.150390625,0.67578125 0,0.34361155112 -0.061706991247,0.505485524902 -0.1328125,0.626953125 -0.1305573059008,0.212409656165 -0.2814557846474,0.371995110213 -0.486328125,0.51953125 -0.2267829064017,0.1528583 -0.4971307833256,0.280375518749 -0.8515625,0.375 -0.3866442760238,0.09506119164 -0.7772465406868,0.14453125 -1.1796875,0.14453125 -0.5363119892419,0 -0.9865433838631,-0.07174374163 -1.384765625,-0.193359375 -0.3731671957039,-0.127135430512 -0.6750061023472,-0.293314483965 -0.9375,-0.505859375 -0.2668644454428,-0.226298335571 -0.4781810836752,-0.481196970016 -0.658203125,-0.814453125 -0.1712331553868,-0.326567410235 -0.3011893385817,-0.724871530395 -0.369140625,-1.23828125 -0.1313690444858,-0.994590494564 -0.9791930874639,-1.738002709589 -1.982421875,-1.73828125 l -2.998046875,0 c -1.1278133426394,-3.67944513e-4 -2.0329253944275,0.931261061917 -2,2.05859375 0.039788719951,1.379342291644 0.3791290332274,2.705135586405 1.033203125,3.87109375 l 0.005859375,0.009765625 c 0.6118214019475,1.077337686038 1.4231648164275,2.017354505635 2.396484375,2.77734375 0.00776273443,0.0065699044 0.015575461599,0.01308051037 0.0234375,0.01953125 0.9670597043361,0.731828965443 2.0612412590677,1.292247684377 3.244140625,1.673828125 1.176115959011,0.379392244842 2.3939287137771,0.572265625 3.626953125,0.572265625 1.104318202227,0 2.2076351477725,-0.153722626972 3.29296875,-0.453125 l 0.021484375,-0.005859375 c 1.113905341189,-0.320087741721 2.1476064124129,-0.800288020592 3.06640625,-1.439453125 l 0.015625,-0.01171875 c 0.9499532741036,-0.674604499001 1.7450463474231,-1.540413802224 2.337890625,-2.544921875 0.6654542571365,-1.109272522569 0.978515625,-2.404029388217 0.978515625,-3.734375 0,-0.872351262554 -0.1307954020309,-1.723425284302 -0.4140625,-2.5234375 -0.2551130035298,-0.758615084584 -0.6226865884171,-1.468130499154 -1.095703125,-2.099609375 -0.4501456630484,-0.611373200964 -0.9794880865964,-1.162483421156 -1.578125,-1.638671875 -0.5567008029544,-0.442830184168 -1.1538586492419,-0.840713755956 -1.7890625,-1.189453125 -0.6166603744876,-0.338558636974 -1.258251390869,-0.633448705407 -1.919921875,-0.88671875 -0.6207148398658,-0.247801700789 -1.2397426116609,-0.470222789782 -1.85546875,-0.6640625 l -0.013671875,-0.00390625 c -0.4822810824278,-0.147637066049 -1.006770524518,-0.32111248192 -1.568359375,-0.521484375 -0.4493558491032,-0.163402126947 -0.8625642574505,-0.365454406907 -1.248046875,-0.60546875 -0.2930803922642,-0.188060302597 -0.5026668979613,-0.391435928707 -0.67578125,-0.62890625 -0.072319739714,-0.103633070205 -0.1288517794007,-0.231829926154 -0.13671875,-0.5546875 0.00294490922,-0.323726157314 0.057345266985,-0.517294886597 0.12890625,-0.658203125 0.1225607414642,-0.220092031464 0.25809076826,-0.377981939688 0.4453125,-0.5234375 0.2293093913603,-0.170012280304 0.4770786427054,-0.299363386636 0.787109375,-0.392578125 l 0.001953125,0 c 0.3567948073983,-0.103984349436 0.7080888361799,-0.154296875 1.076171875,-0.154296875 0.4847223739802,0 0.846258973997,0.07493150873 1.125,0.1875 0.013606087468,0.0060117045 0.027278813128,0.01187144409 0.041015625,0.017578125 0.3272080387023,0.123474731586 0.5571988754555,0.273364283338 0.755859375,0.466796875 0.2121609073581,0.206577725585 0.3863569265417,0.450693513268 0.53515625,0.787109375 l 0.005859375,0.013671875 c 0.1525658701589,0.338298233831 0.267196031139,0.743084760845 0.330078125,1.23828125 0.1269765777228,0.999203733187 0.9771356306035,1.748113528785 1.984375,1.748046875 l 3.015625,0 c 1.119958008761,9.9426376e-5 2.0217600125561,-0.919315897805 2,-2.0390625 -0.026437737802,-1.321886890091 -0.3218562794487,-2.595275515496 -0.8984375,-3.734375 -0.5490469723087,-1.084702555049 -1.3028881409737,-2.044418873684 -2.228515625,-2.8203125 -0.9054544198687,-0.758983851949 -1.9501853798642,-1.342451711312 -3.0859375,-1.744140625 -1.1460606775852,-0.415740381499 -2.3531825917931,-0.626953125 -3.580078125,-0.626953125 z m 37.83203125,0 c -1.1679561210981,0 -2.2854347260284,0.171237585848 -3.3203125,0.548828125 -0.9716844902367,0.354533530221 -1.8704202055771,0.85317148775 -2.666015625,1.486328125 -0.7815280114078,0.619832560772 -1.4583100700087,1.365723232466 -2.013671875,2.2109375 -0.5298550206675,0.796022913935 -0.9673917971408,1.656287696015 -1.3125,2.568359375 -0.3417373753542,0.903163063436 -0.5983544466068,1.84709202144 -0.767578125,2.826171875 l -0.00390625,0.01953125 c -0.1533192852963,0.943503294131 -0.2362381740463,1.895057722746 -0.248046875,2.8515625 l 0,0.025390625 0,2.681640625 0,0.0234375 c 0.011968556373,0.981421622624 0.1079009852975,1.958055945606 0.287109375,2.92578125 0.00188016198,0.009780076 0.00383334145,0.01954597334 0.005859375,0.029296875 0.1933308404449,0.966654202225 0.4731164863621,1.90295816636 0.837890625,2.802734375 0.00382916035,0.0097962847 0.00773553186,0.01956221345 0.01171875,0.029296875 0.3837027216024,0.903558021838 0.8604433096969,1.753058133576 1.421875,2.5390625 0.5832544163567,0.816556182899 1.2746591497258,1.542591073535 2.060546875,2.158203125 l 0.015625,0.013671875 c 0.8046025981363,0.616861991904 1.707993209185,1.100658805307 2.681640625,1.451171875 0.010383895303,0.0039930889 0.020800924505,0.0078994749 0.03125,0.01171875 1.022956547255,0.349958818798 2.1176292425458,0.524440672139 3.2578125,0.537109375 l 0.0078125,0 c 1.7514139738393,0.01233390122 3.4270373292986,-0.309946852929 4.95703125,-0.978515625 1.5507587798184,-0.677642492022 2.9251378132242,-1.72759044922 4.072265625,-3.07421875 0.00724055516,-0.0090521573 0.014402284078,-0.01816708505 0.021484375,-0.02734375 l 0,1.76171875 c 1.104358107e-4,1.104523751992 0.8954762480076,1.999889564189 2,2 l 2.96875,0 c 1.1022398864555,-1.0515525e-4 1.9966608965056,-0.891905791247 2,-1.994140625 l 0.025390625,-9.123046875 5.212890625,10.0390625 c 0.3441920677074,0.662566897285 1.0287561427273,1.078275774525 1.775390625,1.078125 l 2.982421875,0 c 1.1045237519924,-1.10435811e-4 1.9998895641894,-0.895476248008 2,-2 l 0,-23.10546875 c -1.104358106e-4,-1.104523751993 -0.8954762480076,-1.999889564189 -2,-2 l -2.966796875,0 c -1.1022398864555,1.05155249e-4 -1.9966608965056,0.891905791247 -2,1.994140625 l -0.025390625,9.10546875 -5.21484375,-10.0234375 c -0.3443999683489,-0.66118714146 -1.0279311387061,-1.075973126996 -1.7734375,-1.076171875 l -2.984375,0 c -1.1045237519924,1.10435811e-4 -1.9998895641893,0.895476248007 -2,2 l 0,5.025390625 c -0.1617813838096,-0.681957311626 -0.2371995087279,-1.401856623189 -0.53125,-2.021484375 -0.5143323612874,-1.09378992063 -1.2198684712841,-2.065600089912 -2.09375,-2.859375 -0.8734825596644,-0.803914728063 -1.9080592525755,-1.419315844231 -3.044921875,-1.830078125 -1.1488706249692,-0.425592754219 -2.3844776371858,-0.630859375 -3.66796875,-0.630859375 z m -83.408203125,0.31640625 c -1.1045237519925,1.10435811e-4 -1.9998895641893,0.895476248007 -2,2 l 0,23.10546875 c 1.104358107e-4,1.104523751992 0.8954762480075,1.999889564189 2,2 l 5.349609375,0 0.013671875,0 c 1.8191422090445,-0.01196804085 3.5153117915261,-0.312715700923 5.046875,-0.943359375 l 0.0078125,-0.00390625 c 1.5038535776496,-0.626605657354 2.8289461398841,-1.522032137925 3.900390625,-2.671875 1.0732986655416,-1.150886520882 1.8828331575759,-2.527635781702 2.419921875,-4.060546875 0.4479342252901,-1.262360089454 0.5902573368855,-2.662458688461 0.677734375,-4.083984375 l 0,9.763671875 c 1.104358107e-4,1.104523751992 0.8954762480076,1.999889564189 2,2 l 14.1875,0 c 1.1045237519924,-1.10435811e-4 1.9998895641894,-0.895476248008 2,-2 l 0,-2.4921875 c -1.104358106e-4,-1.104523751993 -0.8954762480076,-1.999889564189 -2,-2 l -9.251953125,0 0,-4.1875 7.6484375,0 c 1.1045237519924,-1.10435811e-4 1.9998895641894,-0.895476248008 2,-2 l 0,-2.4921875 c -1.104358106e-4,-1.104523751993 -0.8954762480076,-1.999889564189 -2,-2 l -7.6484375,0 0,-3.42578125 9.109375,0 c 1.1045237519924,-1.10435811e-4 1.9998895641894,-0.895476248008 2,-2 l 0,-2.5078125 c -1.104358106e-4,-1.104523751993 -0.8954762480076,-1.999889564189 -2,-2 l -14.044921875,0 c -1.1045237519924,1.10435811e-4 -1.9998895641893,0.895476248007 -2,2 l 0,9.783203125 c -0.087148968602,-1.417865998633 -0.2300378576256,-2.813891456388 -0.677734375,-4.068359375 -0.5355376775107,-1.54017483005 -1.345264238345,-2.918065129835 -2.419921875,-4.060546875 -1.0709121547844,-1.160097190705 -2.3993865809322,-2.05918912289 -3.90625,-2.67578125 -1.5262001583567,-0.639319174078 -3.2202945625398,-0.954610166941 -5.037109375,-0.978515625 l -0.025390625,0 z m 57.263671875,0 c -1.1045237519924,1.10435811e-4 -1.9998895641893,0.895476248007 -2,2 l 0,2.5546875 c 1.104358107e-4,1.104523751992 0.8954762480076,1.999889564189 2,2 l 3.412109375,0 0,14.01171875 -3.412109375,0 c -1.1045237519924,1.10435811e-4 -1.9998895641893,0.895476248007 -2,2 l 0,2.5390625 c 1.104358107e-4,1.104523751992 0.8954762480076,1.999889564189 2,2 l 13.96484375,0 c 1.1045237519924,-1.10435811e-4 1.9998895641894,-0.895476248008 2,-2 l 0,-2.5390625 c -1.104358106e-4,-1.104523751993 -0.8954762480076,-1.999889564189 -2,-2 l -3.537109375,0 0,-14.01171875 3.537109375,0 c 1.1045237519924,-1.10435811e-4 1.9998895641894,-0.895476248008 2,-2 l 0,-2.5546875 c -1.104358106e-4,-1.104523751993 -0.8954762480076,-1.999889564189 -2,-2 z m 28.828125,2.685546875 0.03125,0.01171875 c -0.00610113319,-0.0025812487 -0.01342245165,-0.0013464616 -0.01953125,-0.00390625 -0.00438288778,-0.0017812976 -0.00733189555,-0.0060408857 -0.01171875,-0.0078125 z m -5.31640625,0.033203125 c -0.0060257066,0.0025993244 -0.00960739282,0.0091020205 -0.015625,0.01171875 -0.00420657956,0.0018845839 -0.00946941509,5.7897982e-5 -0.013671875,0.001953125 z m 7.39453125,1.341796875 0.01953125,0.01953125 c -0.00330019648,-0.003389391 -0.00841036834,-0.0044315169 -0.01171875,-0.0078125 -0.00332302085,-0.0033385888 -0.00448147518,-0.0083877252 -0.0078125,-0.01171875 z m -4.74609375,2.12890625 c 0.5165282205151,0 0.8817270184211,0.08187248856 1.140625,0.19140625 0.010383895303,0.0039930889 0.020800924505,0.0078994749 0.03125,0.01171875 0.315687064129,0.127489006667 0.5339133257627,0.278706591324 0.7265625,0.4765625 0.00646538639,0.0065552917 0.012975958254,0.01306586361 0.01953125,0.01953125 0.2094485281634,0.209448528163 0.3892170656649,0.469095909604 0.54296875,0.830078125 l 0.005859375,0.013671875 c 0.1744221155855,0.401929222871 0.3101431455819,0.858660742878 0.40234375,1.38671875 0.1671589178299,0.957612729973 0.9986104218505,1.656394568833 1.970703125,1.65625 l 2.904296875,0 c 0.6171969017387,-5.2540068e-4 1.1995859333035,-0.285953688427 1.578125,-0.7734375 l 0,2.39453125 c -0.3770590011523,-0.500654126472 -0.9669912981313,-0.795620274961 -1.59375,-0.796875 l -7.490234375,0 c -1.1045237519924,1.10435811e-4 -1.9998895641893,0.895476248007 -2,2 l 0,2.4765625 c 1.104358107e-4,1.104523751992 0.8954762480076,1.999889564189 2,2 l 2.685546875,0 -0.013671875,2.35546875 c -0.2028123014139,0.112741011738 -0.4142942088692,0.212661439267 -0.65625,0.287109375 -0.2779363642657,0.08551888131 -0.5736040790751,0.145774793245 -0.888671875,0.17578125 l -0.00390625,0 c -0.3565803560974,0.03478832742 -0.6902773736431,0.04541416451 -1.005859375,0.037109375 l -0.021484375,0 c -0.4785782458374,-0.0072511855 -0.8339851451495,-0.08837744141 -1.11328125,-0.205078125 -0.3364762822057,-0.151321282823 -0.615606708966,-0.33706768637 -0.86328125,-0.5703125 -0.2655125829962,-0.260311754987 -0.5002125820157,-0.562321575028 -0.70703125,-0.931640625 -0.2306800878116,-0.411928728235 -0.4196717162784,-0.847746033977 -0.5703125,-1.31640625 -0.1561931465816,-0.48593423381 -0.272203546995,-0.979562569429 -0.3515625,-1.484375 -0.073364000596,-0.546018695711 -0.1140848971217,-1.065684966692 -0.123046875,-1.55859375 l 0,-2.677734375 c 0,-0.484299508844 0.032384569666,-0.996286880801 0.09765625,-1.537109375 0.061433315988,-0.5090189039 0.1621849909838,-1.008077155943 0.302734375,-1.5 0.1369342825751,-0.479269989013 0.3083826631407,-0.921452826281 0.515625,-1.3359375 l 0.005859375,-0.013671875 c 0.1760106269646,-0.359061679008 0.3781569067667,-0.639875656767 0.6171875,-0.87890625 0.2212813541915,-0.221281354192 0.4725401093308,-0.393025880496 0.79296875,-0.53125 0.00980229673,-0.0044782933 0.019568240657,-0.0090357338 0.029296875,-0.013671875 0.2463016779574,-0.111077227314 0.5677503702895,-0.1875 1.033203125,-0.1875 z m -146.46484375,0.05859375 0,13.56640625 c -0.32014586138348,-0.20282358833 -0.69132598332353,-0.310520010572 -1.0703125,-0.310546875 l -7.73046875,0 z m 68.025390625,0.1640625 0.33203125,0 c 1.0312162923291,0.01747824224 1.8215878263667,0.197495427961 2.42578125,0.478515625 0.6555506135393,0.304907262111 1.138672708476,0.687989323095 1.53515625,1.18359375 l 0.009765625,0.009765625 c 0.410981996935,0.506388531938 0.7352354124798,1.122548162878 0.966796875,1.908203125 l 0.001953125,0.005859375 c 0.2369816695949,0.795581319354 0.3678503297488,1.688808477111 0.376953125,2.69921875 l 0,1.6953125 c -0.00910344012,1.010481853435 -0.1403725750934,1.913345567281 -0.37890625,2.72265625 l -0.005859375,0.017578125 c -0.2199903928851,0.774040271262 -0.5380351713933,1.383435462676 -0.958984375,1.900390625 l -0.01171875,0.013671875 c -0.3972695943433,0.496586992929 -0.8869845426899,0.885955573894 -1.544921875,1.201171875 -0.5977537632048,0.276503366011 -1.3777800304418,0.452271308521 -2.400390625,0.4609375 l -0.34765625,0 z m -39.23046875,0.826171875 c 0.46005711597572,0 0.77815471635328,0.06640879562 0.974609375,0.140625 0.0168476068397,0.0060865032 0.0337762175293,0.01194640693 0.05078125,0.017578125 0.25190778223374,0.08762009817 0.37116438651697,0.175851886517 0.44921875,0.25390625 0.0153649850634,0.01588286931 0.0309921306913,0.03151001494 0.046875,0.046875 0.10204965318319,0.09546580459 0.16081366748605,0.179531316128 0.21875,0.337890625 0.005071247395,0.01307525004 0.0102798687735,0.02609680349 0.015625,0.0390625 0.081146321502,0.207937448849 0.13711875369057,0.458042277919 0.150390625,0.783203125 0.0181981575887,0.429604027342 0.17435294355757,0.841907453453 0.4453125,1.17578125 -0.25846417862554,-0.08588686913 -0.47948045159865,-0.211744643464 -0.74609375,-0.2890625 -0.0110393382584,-0.0033509015 -0.0221074608137,-0.0066062317 -0.033203125,-0.009765625 -0.67848245005779,-0.184159522159 -1.2733611682432,-0.37911262204 -1.78125,-0.578125 -0.47365330333557,-0.189461321334 -0.8406929089514,-0.382447821617 -1.107421875,-0.55859375 -0.21523757355833,-0.151773260803 -0.31983640226949,-0.272223012902 -0.373046875,-0.3515625 -0.0139517105528,-0.02137938481 -0.0234375,-0.02374661139 -0.0234375,-0.12109375 0,-0.147762072557 0.0234975264681,-0.222913590307 0.056640625,-0.298828125 0.038499856137,-0.07963704739 0.0711523642815,-0.128406266425 0.162109375,-0.201171875 0.0105015919764,-0.0083584791 0.0209187862989,-0.01682244952 0.03125,-0.025390625 0.0886537260081,-0.07387810501 0.21822141506019,-0.15495465746 0.455078125,-0.2265625 0.009132980839,-0.0025393395 0.0182477944801,-0.0051435719 0.02734375,-0.0078125 0.22902140235504,-0.0728704462 0.55139079670327,-0.126953125 0.98046875,-0.126953125 z m -2.935546875,9.330078125 c 0.63912737614785,0.240274581938 1.26450943087181,0.508288436344 1.93359375,0.69140625 l 0.0078125,0.001953125 c 0.73964511446366,0.199135223125 1.3182869381456,0.410910186608 1.71484375,0.6015625 0.0142456012307,0.0066791873 0.0285695149103,0.01319005717 0.04296875,0.01953125 0.41136324664735,0.186277696595 0.67143827926407,0.36921948056 0.8046875,0.494140625 0.0153963257559,0.01457039774 0.0310233000139,0.02889512415 0.046875,0.04296875 0.15927706430674,0.139970753482 0.18125025549088,0.204808360514 0.18359375,0.2109375 0.005663600744,0.01569771751 0.0115234345976,0.03132394112 0.017578125,0.046875 0.0453424595873,0.110117401855 0.072265625,0.226733992336 0.072265625,0.3984375 0,0.132108113486 -0.0196247731586,0.189406479088 -0.05078125,0.255859375 -0.0280115559673,0.05474062069 -0.0525694397209,0.09492563295 -0.150390625,0.169921875 -0.0899310228741,0.06894711754 -0.2496925136462,0.161308299486 -0.5234375,0.2421875 l -0.01171875,0.00390625 c -0.22563803925111,0.0682161514 -0.55810296474355,0.12109375 -0.994140625,0.12109375 -0.51428880977018,0 -0.94863524621476,-0.05680828835 -1.3203125,-0.154296875 -0.001061924582,-2.85902772e-4 -8.9352559117e-4,-0.0016666089 -0.001953125,-0.001953125 -0.31314430454471,-0.08467434293 -0.52256644890554,-0.195282221319 -0.6953125,-0.330078125 -0.13444665565932,-0.111126850517 -0.23819621649621,-0.236416829777 -0.34375,-0.47265625 -0.0898967093401,-0.201197397095 -0.17624565468333,-0.536809729549 -0.19140625,-1.037109375 -0.0156816492199,-0.486215980516 -0.20802082553801,-0.950051972503 -0.541015625,-1.3046875 z"
       id="text4440"
       inkscape:connector-curvature="0"
       sodipodi:nodetypes="scsssccsccccccccccccccccccccccccccccscccsccsccccccccccccccccccscccsccsscsccsccccccccccccccscccscccccccccccsscccccsccsscccccccccccsccsccccccsscsssccsccccccccccsccccccsccccccccccccccccccccccccscccccccccccccccccccccccccccccccccccccccccccccccccccccccccccccccccccccccsccccccccccccccccccsccccccssccsssccsccscccccccsccccccccccccccscccccccccccccscccccscccccccccscsccscscscc" />
    <text
       xml:space="preserve"
       style="font-style:normal;font-variant:normal;font-weight:normal;font-stretch:normal;line-height:0%;font-family:'Roboto Mono';-inkscape-font-specification:'Roboto Mono';text-align:center;letter-spacing:-0.5px;word-spacing:0px;text-anchor:middle;fill:#ffffff;fill-opacity:1;stroke:none;stroke-width:1px;stroke-linecap:butt;stroke-linejoin:miter;stroke-opacity:1"
       x="108.5"
       y="1032.362182617188"
       id="text3353"><tspan
         sodipodi:role="line"
         id="tspan3355"
         x="108"
         y="1032.362182617188"
         style="font-style:normal;font-variant:normal;font-weight:bold;font-stretch:normal;font-size:32.5px;line-height:1.25;font-family:'Roboto Mono';-inkscape-font-specification:'Roboto Mono Bold';text-align:end;text-anchor:end;fill:#ffffff;fill-opacity:1">ZLSA</tspan></text>
    <text
       id="text4161"
       y="1032.362182617188"
       x="112"
       style="font-style:normal;font-variant:normal;font-weight:normal;font-stretch:normal;line-height:0%;font-family:'Roboto Mono';-inkscape-font-specification:'Roboto Mono';text-align:start;letter-spacing:-0.5px;word-spacing:0px;text-anchor:start;fill:#ffffff;fill-opacity:0.7529411765;stroke:none;stroke-width:1px;stroke-linecap:butt;stroke-linejoin:miter;stroke-opacity:1"
       xml:space="preserve"><tspan
         style="font-style:normal;font-variant:normal;font-weight:normal;font-stretch:normal;font-size:32.5px;line-height:1.25;font-family:'Roboto Mono';-inkscape-font-specification:'Roboto Mono Bold';text-align:start;text-anchor:start;fill:#ffffff;fill-opacity:0.7529411765"
         y="1032.362182617188"
         x="112"
         id="tspan4163"
         sodipodi:role="line">DESIGN</tspan></text>
  </g>
</svg>
