<?xml version="1.0" encoding="UTF-8" standalone="no"?>
<!-- Created with Inkscape (http://www.inkscape.org/) -->

<svg
   xmlns:dc="http://purl.org/dc/elements/1.1/"
   xmlns:cc="http://creativecommons.org/ns#"
   xmlns:rdf="http://www.w3.org/1999/02/22-rdf-syntax-ns#"
   xmlns:svg="http://www.w3.org/2000/svg"
   xmlns="http://www.w3.org/2000/svg"
   xmlns:sodipodi="http://sodipodi.sourceforge.net/DTD/sodipodi-0.dtd"
   xmlns:inkscape="http://www.inkscape.org/namespaces/inkscape"
   width="1920"
   height="1080"
   viewBox="0 0 1920.000014883593 1080.000022662765"
   id="svg2"
   version="1.1"
   inkscape:version="0.91 r13725"
   sodipodi:docname="spacex-dragon2-articles.svg">
  <defs
     id="defs4" />
  <sodipodi:namedview
     id="base"
     pagecolor="#40434d"
     bordercolor="#27292f"
     borderopacity="0.4941176471"
     inkscape:pageopacity="0"
     inkscape:pageshadow="2"
     inkscape:zoom="1"
     inkscape:cx="423.8482667058779"
     inkscape:cy="806.7764958678424"
     inkscape:document-units="px"
     inkscape:current-layer="layer17"
     showgrid="false"
     borderlayer="true"
     units="px"
     inkscape:window-width="1600"
     inkscape:window-height="862"
     inkscape:window-x="0"
     inkscape:window-y="18"
     inkscape:window-maximized="0"
     inkscape:snap-text-baseline="true"
     inkscape:object-nodes="true"
     inkscape:snap-smooth-nodes="true"
     showguides="false"
     inkscape:snap-center="true">
    <inkscape:grid
       type="xygrid"
       id="grid3374"
       empcolor="#000000"
       empopacity="0.0823529412"
       color="#000000"
       opacity="0.0431372549"
       empspacing="4" />
  </sodipodi:namedview>
  <metadata
     id="metadata7">
    <rdf:RDF>
      <cc:Work
         rdf:about="">
        <dc:format>image/svg+xml</dc:format>
        <dc:type
           rdf:resource="http://purl.org/dc/dcmitype/StillImage" />
        <dc:title></dc:title>
      </cc:Work>
    </rdf:RDF>
  </metadata>
  <g
     inkscape:label="background"
     inkscape:groupmode="layer"
     id="layer1"
     transform="translate(0,27.63783949003505)"
     style="display:inline;opacity:1"
     sodipodi:insensitive="true">
    <rect
       style="opacity:1;fill:#ffffff;fill-opacity:1;fill-rule:nonzero;stroke:none;stroke-width:4;stroke-linecap:butt;stroke-linejoin:miter;stroke-miterlimit:4;stroke-dasharray:none;stroke-dashoffset:0;stroke-opacity:1"
       id="rect3334"
       width="1920"
       height="1080"
       x="0"
       y="-27.63784027099609" />
  </g>
  <g
     inkscape:groupmode="layer"
     id="layer3"
     inkscape:label="callout"
     style="display:inline" />
  <g
     inkscape:groupmode="layer"
     id="layer2"
     inkscape:label="title"
     style="display:inline"
     sodipodi:insensitive="true">
    <rect
       style="opacity:0.5;fill:#ffffff;fill-opacity:1;fill-rule:nonzero;stroke:none;stroke-width:4;stroke-linecap:butt;stroke-linejoin:miter;stroke-miterlimit:4;stroke-dasharray:none;stroke-dashoffset:0;stroke-opacity:1"
       id="rect4137"
       width="464"
       height="104"
       x="0"
       y="0" />
    <text
       xml:space="preserve"
       style="font-style:normal;font-variant:normal;font-weight:500;font-stretch:normal;font-size:11.25px;line-height:125%;font-family:Roboto;-inkscape-font-specification:'Roboto Medium';text-align:start;letter-spacing:-0.5px;word-spacing:0px;text-anchor:start;opacity:0.8;fill:#000000;fill-opacity:1;stroke:none;stroke-width:1px;stroke-linecap:butt;stroke-linejoin:miter;stroke-opacity:1"
       x="30"
       y="60"
       id="text4139"
       sodipodi:linespacing="125%"><tspan
         sodipodi:role="line"
         id="tspan4141"
         x="30"
         y="60"
         style="font-style:normal;font-variant:normal;font-weight:bold;font-stretch:normal;font-size:20px;font-family:Roboto;-inkscape-font-specification:'Roboto Medium'">SpaceX Dragon 2</tspan></text>
    <g
       id="g5201"
       transform="translate(-60,0)">
      <rect
         y="40"
         x="236"
         height="24"
         width="60"
         id="rect5774"
         style="opacity:1;fill:#ffffff;fill-opacity:1;fill-rule:nonzero;stroke:none;stroke-width:2;stroke-linecap:butt;stroke-linejoin:round;stroke-miterlimit:4;stroke-dasharray:none;stroke-dashoffset:0;stroke-opacity:1" />
      <path
         sodipodi:nodetypes="cccccccccc"
         inkscape:connector-curvature="0"
         id="path4166"
         d="m 263,43 -5,18 4,0 5,-18 z m 8,0 -5,18 4,0 5,-18 z"
         style="opacity:0.4;fill:#000000;fill-opacity:1;fill-rule:evenodd;stroke:none;stroke-width:1px;stroke-linecap:butt;stroke-linejoin:miter;stroke-opacity:1" />
    </g>
    <text
       sodipodi:linespacing="125%"
       id="text4171"
       y="60"
       x="236"
       style="font-style:normal;font-variant:normal;font-weight:500;font-stretch:normal;font-size:11.25px;line-height:125%;font-family:Roboto;-inkscape-font-specification:'Roboto Medium';text-align:start;letter-spacing:-0.5px;word-spacing:0px;text-anchor:start;opacity:0.4;fill:#000000;fill-opacity:1;stroke:none;stroke-width:1px;stroke-linecap:butt;stroke-linejoin:miter;stroke-opacity:1"
       xml:space="preserve"><tspan
         style="font-style:normal;font-variant:normal;font-weight:normal;font-stretch:normal;font-size:20px;font-family:'Roboto Condensed';-inkscape-font-specification:'Roboto Condensed, ';opacity:0.4"
         y="60"
         x="236"
         id="tspan4173"
         sodipodi:role="line">ARTICLES</tspan></text>
    <text
       xml:space="preserve"
       style="font-style:normal;font-variant:normal;font-weight:500;font-stretch:normal;font-size:11.25px;line-height:125%;font-family:Roboto;-inkscape-font-specification:'Roboto Medium';text-align:start;letter-spacing:-0.5px;word-spacing:0px;text-anchor:start;opacity:0.4;fill:#000000;fill-opacity:1;stroke:none;stroke-width:1px;stroke-linecap:butt;stroke-linejoin:miter;stroke-opacity:1"
       x="236"
       y="76"
       id="text5719"
       sodipodi:linespacing="125%"><tspan
         sodipodi:role="line"
         id="tspan5721"
         x="236"
         y="76"
         style="font-style:normal;font-variant:normal;font-weight:normal;font-stretch:normal;font-size:12.5px;font-family:'Roboto Condensed';-inkscape-font-specification:'Roboto Condensed, ';opacity:0.4">* NO SHITPOSTING</tspan></text>
  </g>
  <g
     inkscape:groupmode="layer"
     id="layer18"
     inkscape:label="trajectory" />
  <g
     inkscape:groupmode="layer"
     id="layer8"
     inkscape:label="spacing">
    <rect
       style="display:inline;opacity:1;fill:#ffffff;fill-opacity:1;fill-rule:nonzero;stroke:#404040;stroke-width:2;stroke-linecap:round;stroke-linejoin:round;stroke-miterlimit:4;stroke-dasharray:none;stroke-dashoffset:0;stroke-opacity:1"
       id="rect11703"
       width="320"
       height="352"
       x="32"
       y="104" />
    <rect
       y="104"
       x="352"
       height="352"
       width="320"
       id="rect11743"
       style="display:inline;opacity:1;fill:#ffffff;fill-opacity:1;fill-rule:nonzero;stroke:#404040;stroke-width:2;stroke-linecap:round;stroke-linejoin:round;stroke-miterlimit:4;stroke-dasharray:none;stroke-dashoffset:0;stroke-opacity:1" />
  </g>
  <g
     inkscape:label="dragon 2"
     id="layer17-3"
     transform="translate(32,8)">
    <g
       style="display:inline"
       inkscape:label="capsule"
       id="layer19-5"
       inkscape:groupmode="layer">
      <g
         id="g6444">
        <path
           style="fill:#ffffff;fill-opacity:1;fill-rule:evenodd;stroke:#404040;stroke-width:2;stroke-linecap:butt;stroke-linejoin:miter;stroke-miterlimit:4;stroke-dasharray:none;stroke-opacity:1"
           d="m 160,179 c -8,0 -17.0883974118241,6.1767948236482 -24,20 -8,16 -20.9952041686991,60 -20.9952041686991,76 C 115.0047958313009,285.27308776269 136,287 160,287 c 24,0 44.9952041686992,-1.72691223731 44.9952041686992,-12 C 204.9952041686992,259 192,215 184,199 177.0883974118241,185.1767948236482 168,179 160,179 Z"
           id="path5532"
           inkscape:connector-curvature="0"
           sodipodi:nodetypes="sssssss" />
        <path
           style="fill:none;fill-rule:evenodd;stroke:#404040;stroke-width:2;stroke-linecap:round;stroke-linejoin:miter;stroke-miterlimit:4;stroke-dasharray:none;stroke-opacity:1"
           d="M 135,201.1093750004038 C 136,199.1093750004038 146,198 160,198 c 14,0 24,1.1093750004038 25,3.1093750004038"
           id="path6340"
           inkscape:connector-curvature="0"
           sodipodi:nodetypes="ccc" />
        <path
           style="fill:none;fill-rule:evenodd;stroke:#404040;stroke-width:2;stroke-linecap:butt;stroke-linejoin:miter;stroke-miterlimit:4;stroke-dasharray:none;stroke-opacity:1"
           d="m 154,219 c -1,0 -1.9469547508565,0.9921402662744 -2,2 l -1,19 c -0.052820973567,1.0035984977824 1,2 2,2 l 7,0 7,0 c 1,0 2.0528209735675,-0.9964015022176 2,-2 l -1,-19 c -0.053045249143,-1.0078597337256 -1,-2 -2,-2 l -6,0 z"
           id="path6344"
           inkscape:connector-curvature="0"
           sodipodi:nodetypes="sssscsssscs" />
        <ellipse
           style="opacity:1;fill:#404040;fill-opacity:1;fill-rule:nonzero;stroke:none;stroke-width:2;stroke-linecap:round;stroke-miterlimit:4;stroke-dasharray:none;stroke-dashoffset:0;stroke-opacity:1"
           id="path6349"
           cx="160"
           cy="230"
           rx="4"
           ry="6" />
        <path
           style="opacity:1;fill:#404040;fill-opacity:1;fill-rule:nonzero;stroke:none;stroke-width:2;stroke-linecap:round;stroke-miterlimit:4;stroke-dasharray:none;stroke-dashoffset:0;stroke-opacity:1"
           d="m 179,230 a 6.037022505029623,3.975469692220782 81.55067565298074 0 1 -3.5,6 6.037022505029623,3.975469692220782 81.55067565298074 0 1 -4.5,-6 6.037022505029623,3.975469692220782 81.55067565298074 0 1 3.5,-6 6.037022505029623,3.975469692220782 81.55067565298074 0 1 4.5,6 z"
           id="ellipse6351"
           inkscape:connector-curvature="0"
           inkscape:transform-center-x="-19" />
        <path
           inkscape:transform-center-x="19"
           inkscape:connector-curvature="0"
           id="path6356"
           d="m 141,230 a 3.97546969222078,6.037022505029615 8.449324347019247 0 0 3.5,6 3.97546969222078,6.037022505029615 8.449324347019247 0 0 4.5,-6 3.97546969222078,6.037022505029615 8.449324347019247 0 0 -3.5,-6 3.97546969222078,6.037022505029615 8.449324347019247 0 0 -4.5,6 z"
           style="opacity:1;fill:#404040;fill-opacity:1;fill-rule:nonzero;stroke:none;stroke-width:2;stroke-linecap:round;stroke-miterlimit:4;stroke-dasharray:none;stroke-dashoffset:0;stroke-opacity:1" />
        <path
           style="fill:#404040;fill-opacity:1;fill-rule:evenodd;stroke:none;stroke-width:1px;stroke-linecap:butt;stroke-linejoin:miter;stroke-opacity:1"
           d="M 204.9952041686992,275 C 204.9952041686992,279 204,287 160,287 c -44,0 -44,-8 -44,-12 z"
           id="path6358"
           inkscape:connector-curvature="0"
           sodipodi:nodetypes="cccc" />
        <path
           style="fill:#ffffff;fill-opacity:1;fill-rule:evenodd;stroke:#404040;stroke-width:2;stroke-linecap:butt;stroke-linejoin:round;stroke-miterlimit:4;stroke-dasharray:none;stroke-opacity:1"
           d="M 135.5120627755487,200 C 128.1717651212329,217.2156841506699 119.3211947935534,234.7261561525304 116,251 c -0.6122452982864,3 -1,19.6514151780755 -1,24"
           id="path6360"
           inkscape:connector-curvature="0"
           sodipodi:nodetypes="csc"
           inkscape:transform-center-x="34"
           inkscape:transform-center-y="7" />
        <path
           style="fill:#404040;fill-opacity:1;fill-rule:evenodd;stroke:none;stroke-width:1px;stroke-linecap:butt;stroke-linejoin:miter;stroke-opacity:1"
           d="M 116.0047958313009,253 C 116.0047958313009,253 118,251 122,251 c 6,0 7.7142857142857,1 8,5 l 1,14 c 0.2212811213309,3.0979356986327 3,5 5,5 l 0,3 -19,0 -1.9952041686991,-3 z"
           id="path6364"
           inkscape:connector-curvature="0"
           sodipodi:nodetypes="ccssccccc"
           inkscape:transform-center-x="34"
           inkscape:transform-center-y="33.5" />
        <path
           style="opacity:1;fill:#404040;fill-opacity:1;fill-rule:nonzero;stroke:none;stroke-width:2;stroke-linecap:round;stroke-linejoin:round;stroke-miterlimit:4;stroke-dasharray:none;stroke-dashoffset:0;stroke-opacity:1"
           d="m 135,261.5 c 0,0.8284271244274 -0.6715728755725,1.5 -1.5,1.5 -0.8284271244275,0 -1.5,-0.6715728755726 -1.5,-1.5 0,-2.5 0.6715728755725,-7.5 1.5,-7.5 0.8284271244275,0 1.5,5 1.5,7.5 z"
           id="path6373"
           inkscape:connector-curvature="0"
           sodipodi:nodetypes="sssss"
           inkscape:transform-center-x="25.5"
           inkscape:transform-center-y="27.5" />
        <path
           sodipodi:nodetypes="sssss"
           inkscape:connector-curvature="0"
           id="path6380"
           d="M 139.0363228089238,262.9920084036741 C 138.3098506342061,263.3901662616248 137.3981578579507,263.124014920968 137,262.3975427462501 c -0.3981578579507,-0.7264721747178 -0.1320065172936,-1.6381649509732 0.594465657424,-2.0363228089238 1.3153942331738,-0.72092857575 5.1458829061037,-2.0544827192934 5.5440407640545,-1.3280105445753 0.3981578579506,0.7264721747178 -2.7867893793808,3.2378704351736 -4.1021836125546,3.9587990109236 z"
           style="opacity:1;fill:#404040;fill-opacity:1;fill-rule:nonzero;stroke:none;stroke-width:2;stroke-linecap:round;stroke-linejoin:round;stroke-miterlimit:4;stroke-dasharray:none;stroke-dashoffset:0;stroke-opacity:1"
           inkscape:transform-center-x="17.99999999999994"
           inkscape:transform-center-y="30" />
        <path
           style="opacity:1;fill:#404040;fill-opacity:1;fill-rule:nonzero;stroke:none;stroke-width:2;stroke-linecap:round;stroke-linejoin:round;stroke-miterlimit:4;stroke-dasharray:none;stroke-dashoffset:0;stroke-opacity:1"
           d="m 136.16547410244,266.0000000000001 c -0.2761423748092,-0.7810485832021 0.133164979171,-1.6380711875641 0.914213562373,-1.9142135623731 0.7810485832021,-0.2761423748092 1.638071187564,0.1331649791711 1.9142135623731,0.9142135623731 0.5,1.414213562373 0.866835020829,4.46649831231 0.085786437627,4.7426406871191 -0.781048583202,0.2761423748091 -2.4142135623731,-2.3284271247463 -2.914213562373,-3.7426406871191 z"
           id="path6382"
           inkscape:connector-curvature="0"
           sodipodi:nodetypes="sssss"
           inkscape:transform-center-x="20.18848906167369"
           inkscape:transform-center-y="35.88127882684239" />
        <path
           style="fill:#404040;fill-opacity:1;fill-rule:evenodd;stroke:none;stroke-width:1px;stroke-linecap:butt;stroke-linejoin:miter;stroke-opacity:1"
           d="m 129,255 6,-31 -7,30 z"
           id="path6388"
           inkscape:connector-curvature="0"
           sodipodi:nodetypes="cccc"
           inkscape:transform-center-x="28.5"
           inkscape:transform-center-y="8.5" />
        <path
           inkscape:transform-center-y="7"
           inkscape:transform-center-x="-34"
           sodipodi:nodetypes="csc"
           inkscape:connector-curvature="0"
           id="path6394"
           d="M 184.4879372244513,200 C 191.8282348787671,217.2156841506699 200.6788052064466,234.7261561525304 204,251 c 0.6122452982864,3 1,19.6514151780755 1,24"
           style="fill:#ffffff;fill-opacity:1;fill-rule:evenodd;stroke:#404040;stroke-width:2;stroke-linecap:butt;stroke-linejoin:round;stroke-miterlimit:4;stroke-dasharray:none;stroke-opacity:1" />
        <path
           inkscape:transform-center-y="33.5"
           inkscape:transform-center-x="-34"
           sodipodi:nodetypes="ccssccccc"
           inkscape:connector-curvature="0"
           id="path6396"
           d="m 204,253 c 0,0 -2,-2 -6,-2 -6,0 -7.7142857142857,1 -8,5 l -1,14 c -0.2212811213309,3.0979356986327 -3,5 -5,5 l 0,3 20,0 0.9952041686992,-3 z"
           style="fill:#404040;fill-opacity:1;fill-rule:evenodd;stroke:none;stroke-width:1px;stroke-linecap:butt;stroke-linejoin:miter;stroke-opacity:1" />
        <path
           inkscape:transform-center-y="27.5"
           inkscape:transform-center-x="-25.5"
           sodipodi:nodetypes="sssss"
           inkscape:connector-curvature="0"
           id="path6398"
           d="m 185,261.5 c 0,0.8284271244274 0.6715728755725,1.5 1.5,1.5 0.8284271244275,0 1.5,-0.6715728755726 1.5,-1.5 0,-2.5 -0.6715728755725,-7.5 -1.5,-7.5 -0.8284271244275,0 -1.5,5 -1.5,7.5 z"
           style="opacity:1;fill:#404040;fill-opacity:1;fill-rule:nonzero;stroke:none;stroke-width:2;stroke-linecap:round;stroke-linejoin:round;stroke-miterlimit:4;stroke-dasharray:none;stroke-dashoffset:0;stroke-opacity:1" />
        <path
           inkscape:transform-center-y="30"
           inkscape:transform-center-x="-17.99999999999994"
           style="opacity:1;fill:#404040;fill-opacity:1;fill-rule:nonzero;stroke:none;stroke-width:2;stroke-linecap:round;stroke-linejoin:round;stroke-miterlimit:4;stroke-dasharray:none;stroke-dashoffset:0;stroke-opacity:1"
           d="M 180.9636771910762,262.9920084036741 C 181.6901493657939,263.3901662616248 182.6018421420493,263.124014920968 183,262.3975427462501 c 0.3981578579507,-0.7264721747178 0.1320065172936,-1.6381649509732 -0.594465657424,-2.0363228089238 -1.3153942331738,-0.72092857575 -5.1458829061037,-2.0544827192934 -5.5440407640545,-1.3280105445753 -0.3981578579506,0.7264721747178 2.7867893793808,3.2378704351736 4.1021836125546,3.9587990109236 z"
           id="path6400"
           inkscape:connector-curvature="0"
           sodipodi:nodetypes="sssss" />
        <path
           inkscape:transform-center-y="35.88127882684239"
           inkscape:transform-center-x="-20.18848906167369"
           sodipodi:nodetypes="sssss"
           inkscape:connector-curvature="0"
           id="path6402"
           d="m 183.83452589756,266.0000000000001 c 0.2761423748092,-0.7810485832021 -0.133164979171,-1.6380711875641 -0.914213562373,-1.9142135623731 -0.7810485832021,-0.2761423748092 -1.638071187564,0.1331649791711 -1.9142135623731,0.9142135623731 -0.5,1.414213562373 -0.866835020829,4.46649831231 -0.085786437627,4.7426406871191 0.781048583202,0.2761423748091 2.4142135623731,-2.3284271247463 2.914213562373,-3.7426406871191 z"
           style="opacity:1;fill:#404040;fill-opacity:1;fill-rule:nonzero;stroke:none;stroke-width:2;stroke-linecap:round;stroke-linejoin:round;stroke-miterlimit:4;stroke-dasharray:none;stroke-dashoffset:0;stroke-opacity:1" />
        <path
           inkscape:transform-center-y="8.5"
           inkscape:transform-center-x="-28.5"
           sodipodi:nodetypes="cccc"
           inkscape:connector-curvature="0"
           id="path6404"
           d="m 191,255 -6,-31 7,30 z"
           style="fill:#404040;fill-opacity:1;fill-rule:evenodd;stroke:none;stroke-width:1px;stroke-linecap:butt;stroke-linejoin:miter;stroke-opacity:1" />
        <rect
           style="opacity:1;fill:#808080;fill-opacity:1;fill-rule:nonzero;stroke:none;stroke-width:2;stroke-linecap:round;stroke-linejoin:round;stroke-miterlimit:4;stroke-dasharray:none;stroke-dashoffset:0;stroke-opacity:1"
           id="rect6406"
           width="6"
           height="11"
           x="168"
           y="259"
           rx="2"
           ry="2" />
      </g>
    </g>
    <g
       style="display:inline"
       inkscape:label="trunk"
       id="layer18-6"
       inkscape:groupmode="layer">
      <g
         id="g6466">
        <path
           inkscape:transform-center-x="-53"
           sodipodi:nodetypes="cccsc"
           inkscape:connector-curvature="0"
           id="path7279"
           d="m 204,360 10,0 0,-53.9999993917472 c 0,-3 -0.7596526541079,-5.8293921446889 -2,-8 l -8,-14"
           style="fill:#ffffff;fill-opacity:1;fill-rule:evenodd;stroke:#404040;stroke-width:2;stroke-linecap:butt;stroke-linejoin:miter;stroke-miterlimit:4;stroke-dasharray:none;stroke-opacity:1" />
        <path
           style="fill:#ffffff;fill-opacity:1;fill-rule:evenodd;stroke:#404040;stroke-width:2;stroke-linecap:butt;stroke-linejoin:miter;stroke-miterlimit:4;stroke-dasharray:none;stroke-opacity:1"
           d="m 116,360 -10,0 0,-53.9999993917472 c 0,-3 0.7596526541079,-5.8293921446889 2,-8 l 8,-14"
           id="path7277"
           inkscape:connector-curvature="0"
           sodipodi:nodetypes="cccsc"
           inkscape:transform-center-x="53" />
        <rect
           y="280"
           x="116"
           height="80"
           width="88"
           id="rect7275"
           style="display:inline;opacity:1;fill:#ffffff;fill-opacity:1;fill-rule:nonzero;stroke:#404040;stroke-width:2;stroke-linecap:round;stroke-linejoin:miter;stroke-miterlimit:4;stroke-dasharray:none;stroke-dashoffset:0;stroke-opacity:1" />
        <path
           style="fill:none;fill-rule:evenodd;stroke:#404040;stroke-width:2;stroke-linecap:butt;stroke-linejoin:miter;stroke-miterlimit:4;stroke-dasharray:none;stroke-opacity:1"
           d="m 160,360 0,-74"
           id="path7281"
           inkscape:connector-curvature="0"
           sodipodi:nodetypes="cc" />
        <path
           style="fill:none;fill-rule:evenodd;stroke:#404040;stroke-width:2;stroke-linecap:round;stroke-linejoin:miter;stroke-miterlimit:4;stroke-dasharray:none;stroke-opacity:1"
           d="m 160,285 -4,4 0,71"
           id="path6408"
           inkscape:connector-curvature="0" />
        <path
           inkscape:connector-curvature="0"
           id="path6411"
           d="m 160,285 4,4 0,71"
           style="fill:none;fill-rule:evenodd;stroke:#404040;stroke-width:2;stroke-linecap:round;stroke-linejoin:miter;stroke-miterlimit:4;stroke-dasharray:none;stroke-opacity:1" />
        <path
           style="opacity:1;fill:#ffffff;fill-opacity:1;fill-rule:nonzero;stroke:#404040;stroke-width:2;stroke-linecap:round;stroke-linejoin:round;stroke-miterlimit:4;stroke-dasharray:none;stroke-dashoffset:0;stroke-opacity:1"
           d="m 170,259 3,0 c 1.108,0 1.7379352134935,0.9234378570313 2,2 0.7479437002583,3.0725527206614 2,7.9113229941927 2,12 l 0,5 c 0,1 -0.088662107904,1.9374999977574 -0.088662107904,3 l 0,3 -1,2 L 168,286 l 0,-5 c 0,-1 1,-2 1,-3 l 0,-5 c 0,-1 -1,-2 -1,-3 l 0,-9 c 0,-1.1079999999999 0.892,-2 2,-2 z"
           id="rect6416"
           inkscape:connector-curvature="0"
           sodipodi:nodetypes="ssssccccccccccs" />
        <path
           sodipodi:nodetypes="ccccccc"
           inkscape:connector-curvature="0"
           id="path6420"
           d="m 168,282 9,0 0,3 c 0,2 -1,3 -1,3 l -8,0 -1,-4 z"
           style="opacity:1;fill:#ffffff;fill-opacity:1;fill-rule:nonzero;stroke:#404040;stroke-width:2;stroke-linecap:round;stroke-linejoin:round;stroke-miterlimit:4;stroke-dasharray:none;stroke-dashoffset:0;stroke-opacity:1" />
        <path
           style="fill:#404040;fill-opacity:1;fill-rule:evenodd;stroke:none;stroke-width:1px;stroke-linecap:butt;stroke-linejoin:miter;stroke-opacity:1"
           d="m 168,270 6,0 c 0,0 -3,1 -6,1 z"
           id="path6422"
           inkscape:connector-curvature="0"
           sodipodi:nodetypes="cccc" />
        <rect
           ry="1"
           rx="1"
           y="352"
           x="168"
           height="4"
           width="8"
           id="rect6438"
           style="opacity:1;fill:#404040;fill-opacity:1;fill-rule:nonzero;stroke:none;stroke-width:2;stroke-linecap:round;stroke-linejoin:round;stroke-miterlimit:4;stroke-dasharray:none;stroke-dashoffset:0;stroke-opacity:1" />
        <rect
           style="opacity:1;fill:#404040;fill-opacity:1;fill-rule:nonzero;stroke:none;stroke-width:2;stroke-linecap:round;stroke-linejoin:round;stroke-miterlimit:4;stroke-dasharray:none;stroke-dashoffset:0;stroke-opacity:1"
           id="rect6440"
           width="8"
           height="4"
           x="144"
           y="352"
           rx="1"
           ry="1" />
      </g>
    </g>
  </g>
  <g
     transform="translate(352,8)"
     id="g11745"
     inkscape:label="dragon 2">
    <g
       inkscape:groupmode="layer"
       id="g11747"
       inkscape:label="capsule"
       style="display:inline">
      <g
         id="g11749">
        <path
           sodipodi:nodetypes="sssssss"
           inkscape:connector-curvature="0"
           id="path11751"
           d="m 160,179 c -8,0 -17.0883974118241,6.1767948236482 -24,20 -8,16 -20.9952041686991,60 -20.9952041686991,76 C 115.0047958313009,285.27308776269 136,287 160,287 c 24,0 44.9952041686992,-1.72691223731 44.9952041686992,-12 C 204.9952041686992,259 192,215 184,199 177.0883974118241,185.1767948236482 168,179 160,179 Z"
           style="fill:#ffffff;fill-opacity:1;fill-rule:evenodd;stroke:#404040;stroke-width:2;stroke-linecap:butt;stroke-linejoin:miter;stroke-miterlimit:4;stroke-dasharray:none;stroke-opacity:1" />
        <path
           sodipodi:nodetypes="ccc"
           inkscape:connector-curvature="0"
           id="path11753"
           d="M 135,201.1093750004038 C 136,199.1093750004038 146,198 160,198 c 14,0 24,1.1093750004038 25,3.1093750004038"
           style="fill:none;fill-rule:evenodd;stroke:#404040;stroke-width:2;stroke-linecap:round;stroke-linejoin:miter;stroke-miterlimit:4;stroke-dasharray:none;stroke-opacity:1" />
        <path
           sodipodi:nodetypes="sssscsssscs"
           inkscape:connector-curvature="0"
           id="path11755"
           d="m 154,219 c -1,0 -1.9469547508565,0.9921402662744 -2,2 l -1,19 c -0.052820973567,1.0035984977824 1,2 2,2 l 7,0 7,0 c 1,0 2.0528209735675,-0.9964015022176 2,-2 l -1,-19 c -0.053045249143,-1.0078597337256 -1,-2 -2,-2 l -6,0 z"
           style="fill:none;fill-rule:evenodd;stroke:#404040;stroke-width:2;stroke-linecap:butt;stroke-linejoin:miter;stroke-miterlimit:4;stroke-dasharray:none;stroke-opacity:1" />
        <ellipse
           ry="6"
           rx="4"
           cy="230"
           cx="160"
           id="ellipse11757"
           style="opacity:1;fill:#404040;fill-opacity:1;fill-rule:nonzero;stroke:none;stroke-width:2;stroke-linecap:round;stroke-miterlimit:4;stroke-dasharray:none;stroke-dashoffset:0;stroke-opacity:1" />
        <path
           inkscape:transform-center-x="-19"
           inkscape:connector-curvature="0"
           id="path11759"
           d="m 179,230 a 6.037022505029623,3.975469692220782 81.55067565298074 0 1 -3.5,6 6.037022505029623,3.975469692220782 81.55067565298074 0 1 -4.5,-6 6.037022505029623,3.975469692220782 81.55067565298074 0 1 3.5,-6 6.037022505029623,3.975469692220782 81.55067565298074 0 1 4.5,6 z"
           style="opacity:1;fill:#404040;fill-opacity:1;fill-rule:nonzero;stroke:none;stroke-width:2;stroke-linecap:round;stroke-miterlimit:4;stroke-dasharray:none;stroke-dashoffset:0;stroke-opacity:1" />
        <path
           style="opacity:1;fill:#404040;fill-opacity:1;fill-rule:nonzero;stroke:none;stroke-width:2;stroke-linecap:round;stroke-miterlimit:4;stroke-dasharray:none;stroke-dashoffset:0;stroke-opacity:1"
           d="m 141,230 a 3.97546969222078,6.037022505029615 8.449324347019247 0 0 3.5,6 3.97546969222078,6.037022505029615 8.449324347019247 0 0 4.5,-6 3.97546969222078,6.037022505029615 8.449324347019247 0 0 -3.5,-6 3.97546969222078,6.037022505029615 8.449324347019247 0 0 -4.5,6 z"
           id="path11761"
           inkscape:connector-curvature="0"
           inkscape:transform-center-x="19" />
        <path
           sodipodi:nodetypes="cccc"
           inkscape:connector-curvature="0"
           id="path11763"
           d="M 204.9952041686992,275 C 204.9952041686992,279 204,287 160,287 c -44,0 -44,-8 -44,-12 z"
           style="fill:#404040;fill-opacity:1;fill-rule:evenodd;stroke:none;stroke-width:1px;stroke-linecap:butt;stroke-linejoin:miter;stroke-opacity:1" />
        <path
           inkscape:transform-center-y="7"
           inkscape:transform-center-x="34"
           sodipodi:nodetypes="csc"
           inkscape:connector-curvature="0"
           id="path11765"
           d="M 135.5120627755487,200 C 128.1717651212329,217.2156841506699 119.3211947935534,234.7261561525304 116,251 c -0.6122452982864,3 -1,19.6514151780755 -1,24"
           style="fill:#ffffff;fill-opacity:1;fill-rule:evenodd;stroke:#404040;stroke-width:2;stroke-linecap:butt;stroke-linejoin:round;stroke-miterlimit:4;stroke-dasharray:none;stroke-opacity:1" />
        <path
           inkscape:transform-center-y="33.5"
           inkscape:transform-center-x="34"
           sodipodi:nodetypes="ccssccccc"
           inkscape:connector-curvature="0"
           id="path11767"
           d="M 116.0047958313009,253 C 116.0047958313009,253 118,251 122,251 c 6,0 7.7142857142857,1 8,5 l 1,14 c 0.2212811213309,3.0979356986327 3,5 5,5 l 0,3 -19,0 -1.9952041686991,-3 z"
           style="fill:#404040;fill-opacity:1;fill-rule:evenodd;stroke:none;stroke-width:1px;stroke-linecap:butt;stroke-linejoin:miter;stroke-opacity:1" />
        <path
           inkscape:transform-center-y="27.5"
           inkscape:transform-center-x="25.5"
           sodipodi:nodetypes="sssss"
           inkscape:connector-curvature="0"
           id="path11769"
           d="m 135,261.5 c 0,0.8284271244274 -0.6715728755725,1.5 -1.5,1.5 -0.8284271244275,0 -1.5,-0.6715728755726 -1.5,-1.5 0,-2.5 0.6715728755725,-7.5 1.5,-7.5 0.8284271244275,0 1.5,5 1.5,7.5 z"
           style="opacity:1;fill:#404040;fill-opacity:1;fill-rule:nonzero;stroke:none;stroke-width:2;stroke-linecap:round;stroke-linejoin:round;stroke-miterlimit:4;stroke-dasharray:none;stroke-dashoffset:0;stroke-opacity:1" />
        <path
           inkscape:transform-center-y="30"
           inkscape:transform-center-x="17.99999999999994"
           style="opacity:1;fill:#404040;fill-opacity:1;fill-rule:nonzero;stroke:none;stroke-width:2;stroke-linecap:round;stroke-linejoin:round;stroke-miterlimit:4;stroke-dasharray:none;stroke-dashoffset:0;stroke-opacity:1"
           d="M 139.0363228089238,262.9920084036741 C 138.3098506342061,263.3901662616248 137.3981578579507,263.124014920968 137,262.3975427462501 c -0.3981578579507,-0.7264721747178 -0.1320065172936,-1.6381649509732 0.594465657424,-2.0363228089238 1.3153942331738,-0.72092857575 5.1458829061037,-2.0544827192934 5.5440407640545,-1.3280105445753 0.3981578579506,0.7264721747178 -2.7867893793808,3.2378704351736 -4.1021836125546,3.9587990109236 z"
           id="path11771"
           inkscape:connector-curvature="0"
           sodipodi:nodetypes="sssss" />
        <path
           inkscape:transform-center-y="35.88127882684239"
           inkscape:transform-center-x="20.18848906167369"
           sodipodi:nodetypes="sssss"
           inkscape:connector-curvature="0"
           id="path11773"
           d="m 136.16547410244,266.0000000000001 c -0.2761423748092,-0.7810485832021 0.133164979171,-1.6380711875641 0.914213562373,-1.9142135623731 0.7810485832021,-0.2761423748092 1.638071187564,0.1331649791711 1.9142135623731,0.9142135623731 0.5,1.414213562373 0.866835020829,4.46649831231 0.085786437627,4.7426406871191 -0.781048583202,0.2761423748091 -2.4142135623731,-2.3284271247463 -2.914213562373,-3.7426406871191 z"
           style="opacity:1;fill:#404040;fill-opacity:1;fill-rule:nonzero;stroke:none;stroke-width:2;stroke-linecap:round;stroke-linejoin:round;stroke-miterlimit:4;stroke-dasharray:none;stroke-dashoffset:0;stroke-opacity:1" />
        <path
           inkscape:transform-center-y="8.5"
           inkscape:transform-center-x="28.5"
           sodipodi:nodetypes="cccc"
           inkscape:connector-curvature="0"
           id="path11775"
           d="m 129,255 6,-31 -7,30 z"
           style="fill:#404040;fill-opacity:1;fill-rule:evenodd;stroke:none;stroke-width:1px;stroke-linecap:butt;stroke-linejoin:miter;stroke-opacity:1" />
        <path
           style="fill:#ffffff;fill-opacity:1;fill-rule:evenodd;stroke:#404040;stroke-width:2;stroke-linecap:butt;stroke-linejoin:round;stroke-miterlimit:4;stroke-dasharray:none;stroke-opacity:1"
           d="M 184.4879372244513,200 C 191.8282348787671,217.2156841506699 200.6788052064466,234.7261561525304 204,251 c 0.6122452982864,3 1,19.6514151780755 1,24"
           id="path11777"
           inkscape:connector-curvature="0"
           sodipodi:nodetypes="csc"
           inkscape:transform-center-x="-34"
           inkscape:transform-center-y="7" />
        <path
           style="fill:#404040;fill-opacity:1;fill-rule:evenodd;stroke:none;stroke-width:1px;stroke-linecap:butt;stroke-linejoin:miter;stroke-opacity:1"
           d="m 204,253 c 0,0 -2,-2 -6,-2 -6,0 -7.7142857142857,1 -8,5 l -1,14 c -0.2212811213309,3.0979356986327 -3,5 -5,5 l 0,3 20,0 0.9952041686992,-3 z"
           id="path11779"
           inkscape:connector-curvature="0"
           sodipodi:nodetypes="ccssccccc"
           inkscape:transform-center-x="-34"
           inkscape:transform-center-y="33.5" />
        <path
           style="opacity:1;fill:#404040;fill-opacity:1;fill-rule:nonzero;stroke:none;stroke-width:2;stroke-linecap:round;stroke-linejoin:round;stroke-miterlimit:4;stroke-dasharray:none;stroke-dashoffset:0;stroke-opacity:1"
           d="m 185,261.5 c 0,0.8284271244274 0.6715728755725,1.5 1.5,1.5 0.8284271244275,0 1.5,-0.6715728755726 1.5,-1.5 0,-2.5 -0.6715728755725,-7.5 -1.5,-7.5 -0.8284271244275,0 -1.5,5 -1.5,7.5 z"
           id="path11781"
           inkscape:connector-curvature="0"
           sodipodi:nodetypes="sssss"
           inkscape:transform-center-x="-25.5"
           inkscape:transform-center-y="27.5" />
        <path
           sodipodi:nodetypes="sssss"
           inkscape:connector-curvature="0"
           id="path11783"
           d="M 180.9636771910762,262.9920084036741 C 181.6901493657939,263.3901662616248 182.6018421420493,263.124014920968 183,262.3975427462501 c 0.3981578579507,-0.7264721747178 0.1320065172936,-1.6381649509732 -0.594465657424,-2.0363228089238 -1.3153942331738,-0.72092857575 -5.1458829061037,-2.0544827192934 -5.5440407640545,-1.3280105445753 -0.3981578579506,0.7264721747178 2.7867893793808,3.2378704351736 4.1021836125546,3.9587990109236 z"
           style="opacity:1;fill:#404040;fill-opacity:1;fill-rule:nonzero;stroke:none;stroke-width:2;stroke-linecap:round;stroke-linejoin:round;stroke-miterlimit:4;stroke-dasharray:none;stroke-dashoffset:0;stroke-opacity:1"
           inkscape:transform-center-x="-17.99999999999994"
           inkscape:transform-center-y="30" />
        <path
           style="opacity:1;fill:#404040;fill-opacity:1;fill-rule:nonzero;stroke:none;stroke-width:2;stroke-linecap:round;stroke-linejoin:round;stroke-miterlimit:4;stroke-dasharray:none;stroke-dashoffset:0;stroke-opacity:1"
           d="m 183.83452589756,266.0000000000001 c 0.2761423748092,-0.7810485832021 -0.133164979171,-1.6380711875641 -0.914213562373,-1.9142135623731 -0.7810485832021,-0.2761423748092 -1.638071187564,0.1331649791711 -1.9142135623731,0.9142135623731 -0.5,1.414213562373 -0.866835020829,4.46649831231 -0.085786437627,4.7426406871191 0.781048583202,0.2761423748091 2.4142135623731,-2.3284271247463 2.914213562373,-3.7426406871191 z"
           id="path11785"
           inkscape:connector-curvature="0"
           sodipodi:nodetypes="sssss"
           inkscape:transform-center-x="-20.18848906167369"
           inkscape:transform-center-y="35.88127882684239" />
        <path
           style="fill:#404040;fill-opacity:1;fill-rule:evenodd;stroke:none;stroke-width:1px;stroke-linecap:butt;stroke-linejoin:miter;stroke-opacity:1"
           d="m 191,255 -6,-31 7,30 z"
           id="path11787"
           inkscape:connector-curvature="0"
           sodipodi:nodetypes="cccc"
           inkscape:transform-center-x="-28.5"
           inkscape:transform-center-y="8.5" />
        <rect
           ry="2"
           rx="2"
           y="259"
           x="168"
           height="11"
           width="6"
           id="rect11789"
           style="opacity:1;fill:#808080;fill-opacity:1;fill-rule:nonzero;stroke:none;stroke-width:2;stroke-linecap:round;stroke-linejoin:round;stroke-miterlimit:4;stroke-dasharray:none;stroke-dashoffset:0;stroke-opacity:1" />
      </g>
    </g>
    <g
       inkscape:groupmode="layer"
       id="g11791"
       inkscape:label="trunk"
       style="display:inline">
      <g
         id="g11793">
        <path
           style="fill:#ffffff;fill-opacity:1;fill-rule:evenodd;stroke:#404040;stroke-width:2;stroke-linecap:butt;stroke-linejoin:miter;stroke-miterlimit:4;stroke-dasharray:none;stroke-opacity:1"
           d="m 204,360 10,0 0,-53.9999993917472 c 0,-3 -0.7596526541079,-5.8293921446889 -2,-8 l -8,-14"
           id="path11795"
           inkscape:connector-curvature="0"
           sodipodi:nodetypes="cccsc"
           inkscape:transform-center-x="-53" />
        <path
           inkscape:transform-center-x="53"
           sodipodi:nodetypes="cccsc"
           inkscape:connector-curvature="0"
           id="path11797"
           d="m 116,360 -10,0 0,-53.9999993917472 c 0,-3 0.7596526541079,-5.8293921446889 2,-8 l 8,-14"
           style="fill:#ffffff;fill-opacity:1;fill-rule:evenodd;stroke:#404040;stroke-width:2;stroke-linecap:butt;stroke-linejoin:miter;stroke-miterlimit:4;stroke-dasharray:none;stroke-opacity:1" />
        <rect
           style="display:inline;opacity:1;fill:#ffffff;fill-opacity:1;fill-rule:nonzero;stroke:#404040;stroke-width:2;stroke-linecap:round;stroke-linejoin:miter;stroke-miterlimit:4;stroke-dasharray:none;stroke-dashoffset:0;stroke-opacity:1"
           id="rect11799"
           width="88"
           height="80"
           x="116"
           y="280" />
        <path
           sodipodi:nodetypes="cc"
           inkscape:connector-curvature="0"
           id="path11801"
           d="m 160,360 0,-74"
           style="fill:none;fill-rule:evenodd;stroke:#404040;stroke-width:2;stroke-linecap:butt;stroke-linejoin:miter;stroke-miterlimit:4;stroke-dasharray:none;stroke-opacity:1" />
        <path
           inkscape:connector-curvature="0"
           id="path11803"
           d="m 160,285 -4,4 0,71"
           style="fill:none;fill-rule:evenodd;stroke:#404040;stroke-width:2;stroke-linecap:round;stroke-linejoin:miter;stroke-miterlimit:4;stroke-dasharray:none;stroke-opacity:1" />
        <path
           style="fill:none;fill-rule:evenodd;stroke:#404040;stroke-width:2;stroke-linecap:round;stroke-linejoin:miter;stroke-miterlimit:4;stroke-dasharray:none;stroke-opacity:1"
           d="m 160,285 4,4 0,71"
           id="path11805"
           inkscape:connector-curvature="0" />
        <path
           sodipodi:nodetypes="ssssccccccccccs"
           inkscape:connector-curvature="0"
           id="path11807"
           d="m 170,259 3,0 c 1.108,0 1.7379352134935,0.9234378570313 2,2 0.7479437002583,3.0725527206614 2,7.9113229941927 2,12 l 0,5 c 0,1 -0.088662107904,1.9374999977574 -0.088662107904,3 l 0,3 -1,2 L 168,286 l 0,-5 c 0,-1 1,-2 1,-3 l 0,-5 c 0,-1 -1,-2 -1,-3 l 0,-9 c 0,-1.1079999999999 0.892,-2 2,-2 z"
           style="opacity:1;fill:#ffffff;fill-opacity:1;fill-rule:nonzero;stroke:#404040;stroke-width:2;stroke-linecap:round;stroke-linejoin:round;stroke-miterlimit:4;stroke-dasharray:none;stroke-dashoffset:0;stroke-opacity:1" />
        <path
           style="opacity:1;fill:#ffffff;fill-opacity:1;fill-rule:nonzero;stroke:#404040;stroke-width:2;stroke-linecap:round;stroke-linejoin:round;stroke-miterlimit:4;stroke-dasharray:none;stroke-dashoffset:0;stroke-opacity:1"
           d="m 168,282 9,0 0,3 c 0,2 -1,3 -1,3 l -8,0 -1,-4 z"
           id="path11809"
           inkscape:connector-curvature="0"
           sodipodi:nodetypes="ccccccc" />
        <path
           sodipodi:nodetypes="cccc"
           inkscape:connector-curvature="0"
           id="path11811"
           d="m 168,270 6,0 c 0,0 -3,1 -6,1 z"
           style="fill:#404040;fill-opacity:1;fill-rule:evenodd;stroke:none;stroke-width:1px;stroke-linecap:butt;stroke-linejoin:miter;stroke-opacity:1" />
        <rect
           style="opacity:1;fill:#404040;fill-opacity:1;fill-rule:nonzero;stroke:none;stroke-width:2;stroke-linecap:round;stroke-linejoin:round;stroke-miterlimit:4;stroke-dasharray:none;stroke-dashoffset:0;stroke-opacity:1"
           id="rect11813"
           width="8"
           height="4"
           x="168"
           y="352"
           rx="1"
           ry="1" />
        <rect
           ry="1"
           rx="1"
           y="352"
           x="144"
           height="4"
           width="8"
           id="rect11815"
           style="opacity:1;fill:#404040;fill-opacity:1;fill-rule:nonzero;stroke:none;stroke-width:2;stroke-linecap:round;stroke-linejoin:round;stroke-miterlimit:4;stroke-dasharray:none;stroke-dashoffset:0;stroke-opacity:1" />
      </g>
    </g>
  </g>
  <g
     inkscape:groupmode="layer"
     id="layer17"
     inkscape:label="copyright"
     style="display:inline"
     sodipodi:insensitive="true">
    <rect
       style="display:inline;opacity:1;fill:#ffffff;fill-opacity:1;fill-rule:nonzero;stroke:none;stroke-width:4;stroke-linecap:butt;stroke-linejoin:miter;stroke-miterlimit:4;stroke-dasharray:none;stroke-dashoffset:0;stroke-opacity:1"
       id="rect4137-2"
       width="252"
       height="40"
       x="1668"
       y="1040" />
    <text
       xml:space="preserve"
       style="font-style:normal;font-variant:normal;font-weight:normal;font-stretch:normal;font-size:17.5px;line-height:125%;font-family:'Roboto Mono';-inkscape-font-specification:'Roboto Mono';text-align:center;letter-spacing:-0.5px;word-spacing:0px;text-anchor:middle;display:inline;fill:#000000;fill-opacity:0.7509803922;stroke:none;stroke-width:1px;stroke-linecap:butt;stroke-linejoin:miter;stroke-opacity:1"
       x="1848.5"
       y="1065"
       id="text3353"
       sodipodi:linespacing="125%"><tspan
         sodipodi:role="line"
         id="tspan3355"
         x="1848"
         y="1065"
         style="font-style:normal;font-variant:normal;font-weight:bold;font-stretch:normal;font-size:15px;font-family:'Roboto Mono';-inkscape-font-specification:'Roboto Mono Bold';text-align:end;text-anchor:end;fill:#000000;fill-opacity:0.7509803922">ZLSA</tspan></text>
    <text
       sodipodi:linespacing="125%"
       id="text4161"
       y="1065"
       x="1849"
       style="font-style:normal;font-variant:normal;font-weight:normal;font-stretch:normal;font-size:17.5px;line-height:125%;font-family:'Roboto Mono';-inkscape-font-specification:'Roboto Mono';text-align:start;letter-spacing:-0.5px;word-spacing:0px;text-anchor:start;display:inline;fill:#000000;fill-opacity:0.5019607843;stroke:none;stroke-width:1px;stroke-linecap:butt;stroke-linejoin:miter;stroke-opacity:1"
       xml:space="preserve"><tspan
         style="font-style:normal;font-variant:normal;font-weight:normal;font-stretch:normal;font-size:15px;font-family:'Roboto Mono';-inkscape-font-specification:'Roboto Mono Bold';text-align:start;text-anchor:start;fill:#000000;fill-opacity:0.5019607843"
         y="1065"
         x="1849"
         id="tspan4163"
         sodipodi:role="line">DESIGN</tspan></text>
    <text
       sodipodi:linespacing="125%"
       id="text5758"
       y="1065"
       x="1800.5"
       style="font-style:normal;font-variant:normal;font-weight:normal;font-stretch:normal;font-size:17.5px;line-height:125%;font-family:'Roboto Mono';-inkscape-font-specification:'Roboto Mono';text-align:center;letter-spacing:-0.5px;word-spacing:0px;text-anchor:middle;display:inline;fill:#000000;fill-opacity:0.7509803922;stroke:none;stroke-width:1px;stroke-linecap:butt;stroke-linejoin:miter;stroke-opacity:1"
       xml:space="preserve"><tspan
         style="font-style:normal;font-variant:normal;font-weight:bold;font-stretch:normal;font-size:15px;font-family:'Roboto Mono';-inkscape-font-specification:'Roboto Mono Bold';text-align:end;text-anchor:end;fill:#000000;fill-opacity:0.2509803922"
         y="1065"
         x="1800"
         id="tspan5760"
         sodipodi:role="line">2016</tspan></text>
    <text
       xml:space="preserve"
       style="font-style:normal;font-variant:normal;font-weight:normal;font-stretch:normal;font-size:17.5px;line-height:125%;font-family:'Roboto Mono';-inkscape-font-specification:'Roboto Mono';text-align:center;letter-spacing:-0.5px;word-spacing:0px;text-anchor:middle;display:inline;fill:#000000;fill-opacity:0.7509803922;stroke:none;stroke-width:1px;stroke-linecap:butt;stroke-linejoin:miter;stroke-opacity:1"
       x="1762.5"
       y="1065"
       id="text5770"
       sodipodi:linespacing="125%"><tspan
         sodipodi:role="line"
         id="tspan5772"
         x="1762"
         y="1065"
         style="font-style:normal;font-variant:normal;font-weight:bold;font-stretch:normal;font-size:15px;font-family:'Roboto Mono';-inkscape-font-specification:'Roboto Mono Bold';text-align:end;text-anchor:end;fill:#000000;fill-opacity:0.2509803922">COPYRIGHT</tspan></text>
  </g>
</svg>
